<svg width="638" height="657" viewBox="0 0 638 657" fill="none" xmlns="http://www.w3.org/2000/svg">
<path d="M605.517 440.979C559.341 553.477 463.253 623.28 317.253 650.388C171.254 677.496 74.1469 621.247 25.9332 481.641C-22.2806 342.035 -3.26672 235.298 82.9748 161.429C169.216 87.5597 263.267 36.7323 365.127 8.94668C466.987 -18.839 544.062 18.0956 596.35 119.75C648.638 221.405 651.694 328.482 605.517 440.979Z" fill="white"/>
<path d="M73.8737 327.548C69.5228 336.377 62.5842 340.242 53.058 339.144C43.5319 338.046 35.9979 333.632 30.4563 325.901C24.9146 318.171 24.3879 309.548 28.8762 300.033C33.3645 290.518 40.4862 286.836 50.2414 288.986C59.9966 291.136 67.4618 295.893 72.6371 303.258C77.8124 310.623 78.2246 318.719 73.8737 327.548Z" fill="#55CBDC"/>
<path d="M392.243 216.948C416.883 191.676 433.428 196.171 441.877 230.433C450.326 264.696 447.662 293.997 433.885 318.338C420.107 342.679 395.862 352.97 361.148 349.211C326.435 345.453 316.779 328.787 332.181 299.214C347.582 269.642 367.603 242.219 392.243 216.948Z" fill="#55CBDC"/>
<path d="M223.029 162.755V86.6816H293.73V162.755" stroke="#333333" stroke-width="1.5" stroke-miterlimit="10"/>
<path d="M231.038 99.1364H244.902" stroke="#333333" stroke-width="1.5" stroke-miterlimit="10"/>
<path d="M231.038 112.959H283.101" stroke="#333333" stroke-width="1.5" stroke-miterlimit="10"/>
<path d="M231.038 126.784H283.101" stroke="#333333" stroke-width="1.5" stroke-miterlimit="10"/>
<path d="M231.038 140.607H283.101" stroke="#333333" stroke-width="1.5" stroke-miterlimit="10"/>
<path d="M231.038 154.432H283.101" stroke="#333333" stroke-width="1.5" stroke-miterlimit="10"/>
<path d="M143.577 127.001C143.577 127.001 148.24 91.7812 150.25 78.4582C152.259 65.1365 150.318 38.7662 134.707 38.7393C119.096 38.7124 117.047 61.107 120.987 80.9604C124.915 100.755 143.577 127.001 143.577 127.001Z" stroke="#333333" stroke-width="1.5" stroke-miterlimit="10"/>
<path d="M151.068 180.627C151.068 180.627 128.044 119.147 109.364 129.707C90.6845 140.265 118.104 181.068 151.068 180.627Z" stroke="#333333" stroke-width="1.5" stroke-miterlimit="10"/>
<path d="M156.996 157.288C156.996 157.288 151.07 136.014 157.069 115.328C163.068 94.6412 175.465 94.3132 179.516 102.456C188.369 120.247 161.991 143.668 156.996 157.288Z" stroke="#333333" stroke-width="1.5" stroke-miterlimit="10"/>
<path d="M172.235 209.057C172.235 209.057 168.01 190.549 170.393 166.739C172.775 142.927 189.185 132.355 200.452 141.345C206.444 146.126 204.684 171.953 191.022 186.125C179.543 198.03 172.235 209.057 172.235 209.057Z" stroke="#333333" stroke-width="1.5" stroke-miterlimit="10"/>
<path d="M170.534 226.622C170.534 226.622 153.307 198.818 135.645 194.536C117.984 190.252 115.835 202.582 122.201 213.65C128.569 224.718 146.47 232.534 170.534 226.622Z" stroke="#333333" stroke-width="1.5" stroke-miterlimit="10"/>
<path d="M133.568 40.7612C133.568 40.7612 131.905 130.163 177.062 230.696" stroke="#333333" stroke-width="1.5" stroke-miterlimit="10"/>
<path d="M189.158 147.633C188.731 148.271 172.318 189.988 171.499 217.809" stroke="#333333" stroke-width="1.5" stroke-miterlimit="10"/>
<path d="M125.98 201.748C125.98 201.748 137.106 216.402 176.037 228.395" stroke="#333333" stroke-width="1.5" stroke-miterlimit="10"/>
<path d="M109.348 137.361C115.373 154.529 127.026 171.803 158.478 182.684" stroke="#333333" stroke-width="1.5" stroke-miterlimit="10"/>
<path d="M172.631 102.25C172.631 102.25 158.575 125.679 155.472 173.231" stroke="#333333" stroke-width="1.5" stroke-miterlimit="10"/>
<path d="M200.351 264.988C198.072 255.176 195.158 246.591 191.129 240.808C172.507 214.075 147.352 249.342 130.084 228.643C112.816 207.944 92.0937 89.9581 43.0516 91.5352C-5.99046 93.1123 38.9072 266.592 18.8758 264.613C12.9424 264.027 7.25151 259.24 1.76709 252.881" stroke="#333333" stroke-width="1.5" stroke-miterlimit="10"/>
<path d="M43.0514 91.5342C43.0514 91.5342 72.8993 267.082 115.809 374.904" stroke="#333333" stroke-width="1.5" stroke-miterlimit="10"/>
<path d="M4.67712 295.924C4.67712 295.924 4.44254 316.159 53.0997 374.91" stroke="#333333" stroke-width="1.5" stroke-miterlimit="10"/>
<path d="M180.798 231.828C180.798 231.828 155.451 301.377 153.04 374.904" stroke="#333333" stroke-width="1.5" stroke-miterlimit="10"/>
<path d="M196.223 250.941C196.223 250.941 188.693 256.628 170.01 267.304" stroke="#333333" stroke-width="1.5" stroke-miterlimit="10"/>
<path d="M194.686 297.367C186.388 307.962 172.988 323.286 156.276 336.109" stroke="#333333" stroke-width="1.5" stroke-miterlimit="10"/>
<path d="M124.111 218.314C124.111 218.314 127.865 301.866 106.96 351.244" stroke="#333333" stroke-width="1.5" stroke-miterlimit="10"/>
<path d="M93.9702 141.537C93.9702 141.537 96.9341 231.828 81.4778 267.304" stroke="#333333" stroke-width="1.5" stroke-miterlimit="10"/>
<path d="M23.2772 222.765C23.2772 222.765 53.7106 284.866 94.6632 313.679" stroke="#333333" stroke-width="1.5" stroke-miterlimit="10"/>
<path d="M19.1262 153.268C19.1262 153.268 44.0814 177.941 64.032 195.877" stroke="#333333" stroke-width="1.5" stroke-miterlimit="10"/>
<path d="M66.887 101.024L54.8617 153.268" stroke="#333333" stroke-width="1.5" stroke-miterlimit="10"/>
<path d="M16.8862 350.087C16.8862 350.087 17.7749 354.661 48.0306 368.586" stroke="#333333" stroke-width="1.5" stroke-miterlimit="10"/>
<path d="M75.6209 435.519V424.31L68.5422 424.688C68.0886 423.011 67.4304 421.422 66.5824 419.95L71.8521 415.22L63.9173 407.294L59.182 412.557C57.7081 411.71 56.1171 411.052 54.4387 410.599L54.8169 403.528H43.5952L43.9734 410.599C42.2949 411.052 40.7039 411.71 39.23 412.557L34.4947 407.294L26.56 415.22L31.8296 419.95C30.9816 421.422 30.3221 423.01 29.8698 424.688L22.7911 424.31V435.519L29.8698 435.142C30.3234 436.818 30.9816 438.407 31.8296 439.88L26.56 444.61L34.4947 452.536L39.23 447.272C40.7039 448.119 42.2949 448.778 43.9734 449.231L43.5952 456.302H54.8169L54.4387 449.231C56.1171 448.778 57.7081 448.119 59.182 447.272L63.9159 452.536L71.8507 444.61L66.5811 439.88C67.429 438.407 68.0886 436.818 68.5409 435.142L75.6209 435.519ZM49.2067 439.706C43.793 439.706 39.405 435.323 39.405 429.915C39.405 424.508 43.7944 420.125 49.2067 420.125C54.6204 420.125 59.0084 424.508 59.0084 429.915C59.0084 435.323 54.6204 439.706 49.2067 439.706Z" fill="#333333"/>
<path d="M499.988 110.303V91.7448L488.268 92.3713C487.517 89.5949 486.427 86.9636 485.023 84.5273L493.748 76.6967L480.611 63.5741L472.771 72.2893C470.331 70.887 467.698 69.7966 464.919 69.0463L465.546 57.3395H446.967L447.594 69.0463C444.815 69.7966 442.18 70.8857 439.741 72.2893L431.902 63.5741L418.765 76.6967L427.49 84.5273C426.086 86.9649 424.995 89.5949 424.245 92.3713L412.525 91.7448V110.303L424.245 109.677C424.996 112.453 426.086 115.085 427.49 117.521L418.765 125.351L431.902 138.474L439.741 129.759C442.182 131.161 444.815 132.252 447.594 133L446.967 144.707H465.546L464.919 133C467.698 132.25 470.332 131.161 472.773 129.759L480.612 138.474L493.749 125.351L485.024 117.521C486.428 115.083 487.52 112.453 488.269 109.677L499.988 110.303ZM456.254 117.234C447.291 117.234 440.025 109.977 440.025 101.023C440.025 92.0701 447.291 84.8123 456.254 84.8123C465.218 84.8123 472.483 92.0701 472.483 101.023C472.483 109.977 465.218 117.234 456.254 117.234Z" fill="#333333"/>
<path d="M345.306 162.755H492.29L457.955 358.983" stroke="#333333" stroke-width="1.5" stroke-miterlimit="10"/>
<path d="M181.116 374.904L218.236 162.755H299.583" stroke="#333333" stroke-width="1.5" stroke-miterlimit="10"/>
<path d="M345.306 171.715H481.582L447.656 365.945H191.825L225.75 171.715H299.583" stroke="#333333" stroke-width="1.5" stroke-miterlimit="10"/>
<path d="M448.873 374.904H25.6653M32.1289 390.202H446.956" stroke="#333333" stroke-width="1.5" stroke-miterlimit="10"/>
<path d="M209.494 390.202V374.904" stroke="#333333" stroke-width="1.5" stroke-miterlimit="10"/>
<path d="M345.305 144.273H299.583V204.87H345.305V144.273Z" stroke="#333333" stroke-width="1.5" stroke-miterlimit="10"/>
<path d="M304.765 154.936H313.729" stroke="#333333" stroke-width="1.5" stroke-miterlimit="10"/>
<path d="M304.765 163.875H338.432" stroke="#333333" stroke-width="1.5" stroke-miterlimit="10"/>
<path d="M304.765 172.815H338.432" stroke="#333333" stroke-width="1.5" stroke-miterlimit="10"/>
<path d="M304.765 181.755H338.432" stroke="#333333" stroke-width="1.5" stroke-miterlimit="10"/>
<path d="M304.765 190.694H338.432" stroke="#333333" stroke-width="1.5" stroke-miterlimit="10"/>
<path d="M468.498 391.493C468.498 391.493 483.762 367.832 489.387 358.755C495.012 349.679 509.721 334.745 519.163 342.724C528.605 350.704 518.347 365.28 505.777 375.253C493.244 385.199 468.498 391.493 468.498 391.493Z" stroke="#333333" stroke-width="1.5" stroke-miterlimit="10"/>
<path d="M436.446 420.046C436.446 420.046 481.913 394.705 487.775 410.651C493.637 426.597 456.13 437.197 436.446 420.046Z" stroke="#333333" stroke-width="1.5" stroke-miterlimit="10"/>
<path d="M444.845 402.915C444.845 402.915 459.346 393.101 466.341 377.532C473.337 361.964 466.017 355.416 459.391 358.258C444.911 364.47 448.82 392.129 444.845 402.915Z" stroke="#333333" stroke-width="1.5" stroke-miterlimit="10"/>
<path d="M518.814 344.528C518.814 344.528 468.195 406.385 380 443.743" stroke="#333333" stroke-width="1.5" stroke-miterlimit="10"/>
<path d="M483.856 415.283C471.402 422.568 455.498 427.032 430.914 417.495" stroke="#333333" stroke-width="1.5" stroke-miterlimit="10"/>
<path d="M463.655 361.66C463.655 361.66 460.118 383.011 437.583 413.324" stroke="#333333" stroke-width="1.5" stroke-miterlimit="10"/>
</svg>
